<svg width="287" height="242" viewBox="0 0 287 242" fill="none" xmlns="http://www.w3.org/2000/svg">
<rect x="0.55127" y="34.0361" width="170" height="170" rx="85" fill="#B87B40"/>
<rect x="31.7833" y="83.8662" width="55" height="112" transform="rotate(-30 31.7833 83.8662)" fill="#B87B40" stroke="#DC0084" stroke-width="4"/>
<path d="M59.4971 99.4485C64.0336 96.8294 65.1409 92.841 63.093 89.2941C61.8098 87.0715 59.941 86.5064 58.7298 86.2719C57.2323 87.8266 54.0669 88.8829 51.9464 89.1126C51.4692 89.1648 51.0481 89.1035 50.8108 88.6925C50.5559 88.251 50.7215 87.7292 51.1173 87.5006C51.3152 87.3864 51.5114 87.3746 51.6835 87.3564C53.4099 87.2528 55.064 86.6022 56.632 85.6969C58.4435 84.6511 59.1206 82.9408 58.1713 81.2968C57.1166 79.47 53.8923 79.5454 49.6603 81.9887C45.2456 84.5376 43.9479 88.372 45.9342 91.8124C47.1735 93.9589 48.7467 94.715 49.9473 95.0367C50.85 94.069 54.133 92.478 57.0997 92.3078C57.492 92.2842 57.813 92.3831 58.0063 92.718C58.2524 93.1442 58.1021 93.6573 57.6911 93.8946C57.3409 94.0967 56.883 94.077 56.5627 94.1198C54.9219 94.3364 53.1219 95.0509 51.7823 95.8243C49.9707 96.8702 49.3289 98.6413 50.2429 100.225C51.3679 102.173 55.0368 102.024 59.4971 99.4485Z" fill="#DC0084"/>
<path d="M72.1829 124.244C74.3104 122.459 74.4141 119.848 72.6289 117.72L62.0756 105.143C60.2904 103.016 57.6605 102.698 55.5733 104.45C53.4727 106.212 53.3286 108.857 55.1139 110.985L65.6671 123.562C67.4524 125.689 70.0822 126.007 72.1829 124.244Z" fill="#DC0084"/>
<path d="M87.128 148.159C89.9291 146.542 90.443 143.951 89.195 141.79C88.0612 139.826 85.9698 139.227 84.3713 140.15C83.8385 140.457 83.4352 140.954 83.2467 141.225C83.0647 141.473 82.9412 141.645 82.7737 141.742C82.3475 141.988 81.8256 141.823 81.5883 141.412C81.4213 141.122 81.4329 140.791 81.6343 140.472C82.1453 139.669 82.9749 138.926 83.8121 138.443C83.9491 138.364 84.1318 138.258 84.2776 138.195L82.7835 135.607C84.2753 134.745 84.5969 133.017 83.6125 131.312C82.6105 129.577 80.7704 129.096 79.4612 129.852C78.563 130.371 77.9595 130.943 77.5696 131.533C77.4397 131.73 77.2986 131.872 77.1311 131.969C76.7201 132.206 76.2071 132.056 75.9786 131.66C75.8204 131.386 75.8079 131.048 76.0005 130.714C76.5349 129.776 77.4101 129.007 78.5823 128.33L78.5735 128.315C77.1029 126.119 74.7731 125.353 72.4135 126.716C70.0387 128.087 69.4463 130.682 70.835 133.087L77.9717 145.448C80.1426 149.208 83.9769 149.978 87.128 148.159Z" fill="#DC0084"/>
<path d="M95.0136 170.063C97.3428 168.718 97.9832 166.136 96.5769 163.7L94.9509 160.884C93.6317 161.341 91.6258 160.855 90.6377 160.269C90.3929 160.126 90.2417 159.97 90.1451 159.802C89.899 159.376 90.0253 158.856 90.4363 158.619C90.756 158.435 91.0898 158.485 91.3915 158.656C92.3204 159.175 93.8467 159.674 95.1102 158.945C97.4089 157.618 97.8701 154.936 96.3232 152.257C94.7675 149.562 92.2081 148.645 89.9399 149.955C89.1026 150.438 88.6062 151.09 88.4735 151.633C88.2635 152.465 88.3417 153.374 88.4854 154.326C88.5371 154.662 88.4605 155.091 88.0495 155.329C87.6385 155.566 87.1254 155.416 86.8969 155.02C86.8002 154.852 86.7334 154.526 86.7023 154.402C86.6014 153.77 86.4998 152.996 86.6201 152.115C86.2085 152.21 85.7079 152.398 85.1294 152.732C82.648 154.165 82.0533 156.72 83.4683 159.171L88.7066 168.244C90.1128 170.68 92.6693 171.416 95.0136 170.063Z" fill="#DC0084"/>
<path d="M78.8623 92.8868C83.7185 90.0831 85.0585 84.9861 81.9208 79.5514C78.7831 74.1168 73.699 72.7287 68.8428 75.5324C63.9866 78.3362 62.6466 83.4332 65.7843 88.8678C68.922 94.3025 74.0062 95.6905 78.8623 92.8868ZM74.3746 86.8716L71.8082 82.4265C71.5358 81.9546 71.562 81.4726 72.0948 81.165C72.6276 80.8574 73.0581 81.0757 73.3305 81.5476L75.8969 85.9927C76.1694 86.4646 76.1432 86.9466 75.6104 87.2542C75.0776 87.5619 74.6471 87.3436 74.3746 86.8716Z" fill="#DC0084"/>
<path d="M75.7411 102.001C75.3582 103.385 74.3532 104.647 73.1005 105.524C71.8478 106.401 70.3329 106.904 68.8727 106.811C69.0182 107.417 69.3006 108.035 69.7139 108.625L75.7936 117.308C77.3866 119.583 79.9788 120.128 82.2251 118.555C84.5002 116.962 84.831 114.37 83.238 112.095L77.1583 103.412C76.7449 102.822 76.261 102.345 75.7411 102.001ZM65.6868 103.119C67.1286 105.178 69.702 105.758 72.0923 104.084C74.4825 102.41 74.8033 99.804 73.3615 97.7449C71.9399 95.7146 69.3405 95.0669 66.9503 96.7406C64.56 98.4143 64.2652 101.089 65.6868 103.119Z" fill="#DC0084"/>
<path d="M96.6075 135.758C98.8301 134.475 99.3961 131.834 99.0638 129.184C98.9846 128.52 99.2146 128.285 99.5039 128.118C99.8692 127.907 100.384 127.955 100.639 128.397C100.692 128.488 100.723 128.612 100.78 128.782C101 129.69 100.936 131.513 100.712 132.637C101.275 132.698 102.301 132.471 103.062 132.031C105.437 130.66 106.1 128.187 104.825 125.98L101.204 119.708C98.6465 115.278 93.956 114.15 89.2673 116.857C84.609 119.546 82.3371 123.943 84.0685 126.942C85.1671 128.845 87.1945 128.77 88.9147 127.777C90.3914 126.925 90.9682 125.252 90.2744 123.663C89.9901 122.995 90.1107 122.642 90.5673 122.378C90.9936 122.132 91.4738 122.261 91.8342 122.885C92.9504 124.818 92.2293 127.893 89.8088 129.291C89.0325 129.739 88.0857 130.103 87.2401 130.185C87.1988 131.204 87.3859 132.09 88.0363 133.217C89.9611 136.551 93.5781 137.507 96.6075 135.758ZM95.3404 128.817L94.4439 127.264C94.1714 126.792 94.1976 126.31 94.7305 126.003C95.2633 125.695 95.6938 125.913 95.9662 126.385L96.8627 127.938C97.1352 128.41 97.109 128.892 96.5762 129.2C96.0433 129.507 95.6129 129.289 95.3404 128.817Z" fill="#DC0084"/>
<path d="M106.174 159.785C112.015 158.22 114.123 154.27 114.064 149.227L113.983 141.659C113.961 140.355 113.731 138.815 113.399 137.576C112.602 134.605 110.751 133.536 108.051 134.259C105.657 134.901 105.123 136.372 104.978 138.14L107.573 143.341C108.08 144.351 108.471 144.993 108.742 145.393C108.86 145.562 109.068 145.797 109.136 146.052C109.264 146.527 109.003 146.979 108.527 147.107C108.188 147.198 107.871 147.101 107.558 146.748C107.214 146.349 106.648 145.39 106.225 144.557L103.781 139.716C102.506 137.201 100.92 136.17 98.2033 136.898C95.4866 137.626 94.4347 139.473 95.2217 142.41C95.4174 143.14 95.9272 144.296 96.5273 145.245L99.8251 150.421C100.277 150.137 100.793 149.889 101.506 149.698C103.56 149.147 105.143 149.961 106.085 150.691C106.361 150.908 106.51 151.123 106.574 151.361C106.692 151.802 106.414 152.259 105.955 152.382C105.633 152.468 105.362 152.341 105.112 152.153C104.105 151.385 103.251 151.05 101.944 151.4C99.1761 152.142 98.0781 154.292 98.7013 156.619C99.4202 159.301 102.591 160.745 106.174 159.785Z" fill="#DC0084"/>
<rect x="166.552" y="0.828003" width="170" height="170" rx="85" transform="rotate(45 166.552 0.828003)" fill="#007458"/>
<rect x="153.401" y="58.1476" width="55" height="112" transform="rotate(15 153.401 58.1476)" fill="#007458" stroke="#00C9A5" stroke-width="4"/>
<path d="M161.979 88.7624C167.039 90.1182 170.642 88.081 171.702 84.1248C172.366 81.6459 171.444 79.9248 170.754 78.9026C168.595 78.9431 165.61 77.4516 163.948 76.1147C163.574 75.8142 163.32 75.473 163.442 75.0146C163.574 74.5222 164.06 74.2703 164.502 74.3886C164.723 74.4477 164.87 74.5781 165.004 74.687C166.298 75.8344 167.928 76.544 169.677 77.0126C171.697 77.554 173.385 76.8235 173.877 74.9897C174.423 72.9522 172.089 70.7256 167.369 69.4608C162.445 68.1414 158.816 69.9352 157.788 73.7725C157.147 76.1665 157.724 77.8136 158.346 78.89C159.668 78.8441 163.115 80.0405 165.333 82.0179C165.627 82.2787 165.784 82.5755 165.684 82.9491C165.557 83.4245 165.088 83.681 164.629 83.5581C164.239 83.4535 163.929 83.1157 163.672 82.9195C162.359 81.9124 160.581 81.1449 159.086 80.7445C157.066 80.2031 155.36 81.0016 154.887 82.7674C154.304 84.9408 157.004 87.4294 161.979 88.7624Z" fill="#00C9A5"/>
<path d="M153.417 115.266C156.183 115.508 158.103 113.735 158.345 110.968L159.776 94.6127C160.018 91.846 158.383 89.7619 155.669 89.5245C152.937 89.2855 150.965 91.0539 150.723 93.8207L149.292 110.176C149.05 112.943 150.685 115.027 153.417 115.266Z" fill="#00C9A5"/>
<path d="M147.074 142.744C150.198 143.581 152.393 142.113 153.039 139.702C153.626 137.512 152.57 135.609 150.788 135.131C150.193 134.972 149.557 135.038 149.232 135.097C148.928 135.143 148.719 135.178 148.532 135.128C148.057 135 147.805 134.514 147.928 134.056C148.014 133.733 148.257 133.507 148.625 133.424C149.553 133.218 150.665 133.279 151.599 133.529C151.752 133.57 151.956 133.625 152.104 133.683L152.877 130.796C154.541 131.242 155.991 130.247 156.5 128.346C157.019 126.41 156.057 124.769 154.597 124.378C153.595 124.11 152.764 124.087 152.071 124.229C151.84 124.276 151.64 124.277 151.453 124.227C150.995 124.104 150.738 123.635 150.856 123.194C150.938 122.888 151.168 122.64 151.541 122.54C152.582 122.255 153.745 122.33 155.052 122.68L155.057 122.663C155.569 120.071 154.463 117.882 151.832 117.177C149.183 116.467 146.929 117.883 146.21 120.566L142.516 134.353C141.392 138.547 143.559 141.802 147.074 142.744Z" fill="#00C9A5"/>
<path d="M137.161 163.808C139.759 164.505 142.038 163.131 142.766 160.415L143.607 157.274C142.351 156.664 141.277 154.902 140.993 153.789C140.921 153.515 140.924 153.297 140.974 153.11C141.102 152.635 141.558 152.357 142.017 152.48C142.373 152.575 142.573 152.847 142.666 153.182C142.956 154.205 143.682 155.638 145.091 156.015C147.655 156.702 149.877 155.132 150.678 152.144C151.483 149.138 150.322 146.68 147.792 146.002C146.859 145.752 146.047 145.862 145.568 146.152C144.832 146.592 144.244 147.29 143.673 148.065C143.472 148.338 143.114 148.588 142.656 148.465C142.197 148.343 141.941 147.874 142.059 147.432C142.109 147.245 142.293 146.967 142.359 146.857C142.734 146.339 143.209 145.72 143.918 145.182C143.559 144.959 143.072 144.737 142.427 144.564C139.659 143.823 137.432 145.209 136.699 147.943L133.988 158.063C133.26 160.779 134.547 163.108 137.161 163.808Z" fill="#00C9A5"/>
<path d="M180.312 97.816C185.729 99.2673 190.28 96.6107 191.905 90.5491C193.529 84.4876 190.915 79.9111 185.499 78.4598C180.083 77.0084 175.531 79.6651 173.907 85.7266C172.282 91.7882 174.896 96.3647 180.312 97.816ZM181.392 90.3894L182.721 85.4314C182.862 84.9051 183.221 84.5828 183.816 84.742C184.41 84.9013 184.56 85.36 184.419 85.8864L183.09 90.8443C182.949 91.3707 182.59 91.6929 181.996 91.5337C181.401 91.3745 181.251 90.9157 181.392 90.3894Z" fill="#00C9A5"/>
<path d="M171.66 102.054C170.411 102.762 168.808 102.943 167.302 102.678C165.796 102.412 164.369 101.697 163.403 100.598C163.077 101.13 162.84 101.766 162.715 102.476L160.874 112.914C160.392 115.649 161.839 117.868 164.54 118.344C167.275 118.827 169.342 117.228 169.824 114.492L171.665 104.054C171.79 103.344 171.785 102.665 171.66 102.054ZM163.761 95.7346C163.324 98.2101 164.734 100.44 167.607 100.947C170.481 101.453 172.551 99.837 172.988 97.3616C173.418 94.9207 172.038 92.6247 169.164 92.118C166.291 91.6113 164.191 93.2938 163.761 95.7346Z" fill="#00C9A5"/>
<path d="M162.546 140.678C165.025 141.342 167.292 139.875 168.931 137.767C169.345 137.241 169.673 137.238 169.996 137.324C170.403 137.433 170.733 137.831 170.602 138.324C170.574 138.425 170.508 138.535 170.429 138.696C169.942 139.494 168.608 140.738 167.655 141.374C168.01 141.815 168.896 142.38 169.745 142.607C172.394 143.317 174.611 142.037 175.271 139.575L177.145 132.579C178.469 127.638 175.95 123.524 170.721 122.123C165.525 120.73 160.809 122.233 159.913 125.578C159.344 127.7 160.831 129.081 162.749 129.595C164.396 130.037 165.987 129.262 166.62 127.648C166.891 126.975 167.226 126.81 167.736 126.946C168.211 127.073 168.46 127.504 168.273 128.2C167.695 130.357 165.011 132.021 162.311 131.298C161.445 131.066 160.518 130.654 159.862 130.114C159.113 130.805 158.618 131.564 158.282 132.821C157.285 136.539 159.167 139.773 162.546 140.678ZM166.558 134.874L167.022 133.142C167.163 132.616 167.522 132.294 168.116 132.453C168.711 132.612 168.861 133.071 168.72 133.597L168.256 135.329C168.115 135.856 167.755 136.178 167.161 136.019C166.567 135.859 166.417 135.401 166.558 134.874Z" fill="#00C9A5"/>
<path d="M152.321 164.432C157.557 167.455 161.841 166.153 165.365 162.545L170.659 157.138C171.566 156.2 172.491 154.948 173.133 153.837C174.671 151.173 174.118 149.108 171.697 147.71C169.551 146.471 168.133 147.134 166.78 148.281L164.937 153.794C164.582 154.867 164.404 155.597 164.312 156.072C164.277 156.274 164.258 156.588 164.126 156.816C163.88 157.243 163.376 157.378 162.949 157.132C162.645 156.956 162.489 156.663 162.517 156.192C162.557 155.667 162.834 154.589 163.124 153.701L164.819 148.55C165.697 145.869 165.304 144.019 162.868 142.613C160.432 141.206 158.382 141.768 156.862 144.402C156.484 145.057 156.027 146.234 155.781 147.33L154.452 153.322C154.973 153.44 155.513 153.63 156.152 153.999C157.994 155.062 158.538 156.757 158.688 157.939C158.73 158.288 158.683 158.545 158.56 158.758C158.331 159.154 157.812 159.28 157.401 159.043C157.111 158.876 157.01 158.594 156.966 158.285C156.797 157.03 156.43 156.189 155.258 155.512C152.777 154.08 150.479 154.824 149.275 156.909C147.887 159.315 149.108 162.578 152.321 164.432Z" fill="#00C9A5"/>
</svg>
