<svg width="170" height="171" viewBox="0 0 170 171" fill="none" xmlns="http://www.w3.org/2000/svg">
    <rect y="0.20813" width="170" height="170" rx="85" fill="#B87B40" />
    <rect x="34.2321" y="50.0382" width="55" height="112" transform="rotate(-30 34.2321 50.0382)" fill="#B87B40" stroke="#DC0084" stroke-width="4" />
    <path d="M61.9459 65.6205C66.4823 63.0014 67.5896 59.013 65.5418 55.466C64.2586 53.2435 62.3897 52.6784 61.1786 52.4439C59.6811 53.9986 56.5156 55.0549 54.3952 55.2846C53.9179 55.3368 53.4968 55.2755 53.2595 54.8645C53.0046 54.423 53.1702 53.9012 53.566 53.6726C53.7639 53.5584 53.9601 53.5466 54.1323 53.5284C55.8586 53.4248 57.5127 52.7742 59.0807 51.8689C60.8923 50.823 61.5693 49.1128 60.6201 47.4687C59.5654 45.642 56.341 45.7174 52.109 48.1607C47.6943 50.7096 46.3966 54.544 48.383 57.9844C49.6222 60.1309 51.1954 60.887 52.396 61.2087C53.2987 60.241 56.5818 58.65 59.5484 58.4798C59.9408 58.4562 60.2617 58.5551 60.4551 58.89C60.7012 59.3162 60.5508 59.8293 60.1398 60.0666C59.7897 60.2687 59.3317 60.249 59.0114 60.2918C57.3706 60.5084 55.5706 61.2229 54.231 61.9963C52.4195 63.0422 51.7776 64.8133 52.6917 66.3965C53.8167 68.3451 57.4855 68.1957 61.9459 65.6205Z" fill="#DC0084" />
    <path d="M74.6316 90.4161C76.7592 88.6309 76.8628 86.0197 75.0776 83.8922L64.5243 71.3153C62.7391 69.1877 60.1092 68.8703 58.0221 70.6216C55.9214 72.3843 55.7774 75.0293 57.5626 77.1569L68.1159 89.7338C69.9011 91.8613 72.531 92.1787 74.6316 90.4161Z" fill="#DC0084" />
    <path d="M89.5768 114.331C92.3778 112.714 92.8918 110.123 91.6437 107.962C90.5099 105.998 88.4185 105.399 86.8201 106.322C86.2873 106.629 85.8839 107.126 85.6955 107.397C85.5134 107.645 85.3899 107.817 85.2225 107.914C84.7962 108.16 84.2744 107.995 84.0371 107.584C83.8701 107.294 83.8817 106.963 84.083 106.644C84.594 105.841 85.4236 105.098 86.2609 104.615C86.3979 104.536 86.5805 104.43 86.7263 104.367L85.2322 101.779C86.7241 100.917 87.0456 99.189 86.0612 97.4841C85.0593 95.7486 83.2191 95.2684 81.9099 96.0243C81.0118 96.5428 80.4082 97.1146 80.0184 97.705C79.8884 97.9018 79.7473 98.0442 79.5799 98.1408C79.1688 98.3782 78.6558 98.2278 78.4273 97.832C78.2691 97.558 78.2567 97.2201 78.4492 96.8857C78.9836 95.9479 79.8588 95.1787 81.031 94.502L81.0222 94.4868C79.5516 92.2912 77.2218 91.5254 74.8623 92.8877C72.4875 94.2588 71.8951 96.8538 73.2837 99.259L80.4204 111.62C82.5913 115.38 86.4256 116.15 89.5768 114.331Z" fill="#DC0084" />
    <path d="M97.4624 136.235C99.7915 134.89 100.432 132.308 99.0257 129.872L97.3997 127.056C96.0804 127.513 94.0746 127.027 93.0864 126.441C92.8416 126.298 92.6905 126.142 92.5938 125.974C92.3477 125.548 92.474 125.028 92.8851 124.791C93.2047 124.607 93.5386 124.657 93.8402 124.828C94.7691 125.347 96.2954 125.846 97.5589 125.117C99.8576 123.79 100.319 121.108 98.7719 118.429C97.2163 115.734 94.6568 114.817 92.3886 116.127C91.5513 116.61 91.0549 117.262 90.9222 117.805C90.7122 118.637 90.7904 119.546 90.9342 120.498C90.9858 120.834 90.9092 121.263 90.4982 121.501C90.0872 121.738 89.5741 121.588 89.3456 121.192C89.249 121.024 89.1821 120.698 89.151 120.574C89.0501 119.942 88.9485 119.168 89.0689 118.287C88.6572 118.382 88.1566 118.57 87.5781 118.904C85.0967 120.337 84.502 122.892 85.917 125.343L91.1553 134.416C92.5616 136.852 95.118 137.588 97.4624 136.235Z" fill="#DC0084" />
    <path d="M81.3111 59.0588C86.1672 56.2551 87.5072 51.1581 84.3695 45.7234C81.2319 40.2888 76.1477 38.9007 71.2915 41.7044C66.4354 44.5082 65.0954 49.6052 68.2331 55.0398C71.3708 60.4745 76.4549 61.8625 81.3111 59.0588ZM76.8234 53.0436L74.2569 48.5985C73.9845 48.1266 74.0107 47.6446 74.5435 47.337C75.0763 47.0294 75.5068 47.2477 75.7793 47.7196L78.3457 52.1647C78.6181 52.6366 78.5919 53.1186 78.0591 53.4262C77.5263 53.7338 77.0958 53.5156 76.8234 53.0436Z" fill="#DC0084" />
    <path d="M78.1898 68.1733C77.807 69.5573 76.802 70.8189 75.5493 71.6961C74.2965 72.5733 72.7817 73.076 71.3214 72.9826C71.467 73.5889 71.7493 74.2066 72.1627 74.797L78.2424 83.4797C79.8354 85.7548 82.4276 86.3002 84.6738 84.7273C86.9489 83.1343 87.2797 80.5422 85.6867 78.2671L79.607 69.5844C79.1937 68.994 78.7097 68.5174 78.1898 68.1733ZM68.1355 69.2908C69.5773 71.3499 72.1508 71.9299 74.541 70.2562C76.9313 68.5825 77.252 65.9759 75.8103 63.9169C74.3886 61.8866 71.7892 61.2389 69.399 62.9126C67.0087 64.5863 66.7139 67.2605 68.1355 69.2908Z" fill="#DC0084" />
    <path d="M99.0563 101.93C101.279 100.647 101.845 98.006 101.513 95.3562C101.433 94.6915 101.663 94.4572 101.953 94.2902C102.318 94.0793 102.833 94.1271 103.088 94.5686C103.14 94.6599 103.171 94.7841 103.229 94.9539C103.449 95.8621 103.385 97.6851 103.161 98.809C103.724 98.8697 104.75 98.6428 105.511 98.2033C107.886 96.8322 108.548 94.359 107.274 92.1516L103.653 85.8797C101.095 81.4498 96.4047 80.3216 91.716 83.0287C87.0577 85.7181 84.7858 90.115 86.5172 93.114C87.6159 95.0169 89.6432 94.9424 91.3634 93.9493C92.8401 93.0967 93.417 91.424 92.7231 89.8355C92.4389 89.1674 92.5594 88.8137 93.0161 88.55C93.4423 88.3039 93.9226 88.4326 94.2829 89.0567C95.3991 90.9901 94.6781 94.0653 92.2576 95.4628C91.4812 95.911 90.5344 96.275 89.6888 96.3573C89.6475 97.3757 89.8346 98.2622 90.485 99.3887C92.4098 102.723 96.0269 103.679 99.0563 101.93ZM97.7891 94.989L96.8926 93.4363C96.6202 92.9643 96.6464 92.4824 97.1792 92.1748C97.712 91.8671 98.1425 92.0854 98.4149 92.5574L99.3114 94.1101C99.5839 94.582 99.5577 95.064 99.0249 95.3716C98.4921 95.6792 98.0616 95.4609 97.7891 94.989Z" fill="#DC0084" />
    <path d="M108.623 125.957C114.463 124.392 116.572 120.442 116.512 115.399L116.432 107.831C116.41 106.527 116.179 104.987 115.847 103.748C115.051 100.777 113.2 99.7077 110.5 100.431C108.106 101.073 107.572 102.544 107.427 104.312L110.022 109.513C110.529 110.523 110.919 111.165 111.19 111.565C111.308 111.734 111.517 111.969 111.585 112.224C111.713 112.699 111.452 113.151 110.976 113.279C110.637 113.37 110.319 113.273 110.006 112.92C109.663 112.521 109.097 111.562 108.673 110.729L106.23 105.888C104.955 103.373 103.369 102.342 100.652 103.07C97.9354 103.798 96.8834 105.645 97.6705 108.582C97.8661 109.312 98.3759 110.468 98.976 111.417L102.274 116.593C102.725 116.308 103.241 116.061 103.954 115.87C106.009 115.319 107.592 116.133 108.534 116.863C108.81 117.08 108.959 117.295 109.022 117.533C109.141 117.974 108.863 118.431 108.404 118.554C108.082 118.64 107.811 118.513 107.56 118.325C106.554 117.557 105.7 117.222 104.392 117.572C101.625 118.314 100.527 120.464 101.15 122.791C101.869 125.473 105.04 126.917 108.623 125.957Z" fill="#DC0084" />
</svg>