<svg width="171" height="171" viewBox="0 0 171 171" fill="none" xmlns="http://www.w3.org/2000/svg">
<rect x="0.208008" y="0.20813" width="170" height="170" rx="85" fill="#007458"/>
<rect x="34.4401" y="50.0382" width="55" height="112" transform="rotate(-30 34.4401 50.0382)" fill="#007458" stroke="#00C9A5" stroke-width="4"/>
<path d="M62.1539 65.6205C66.6903 63.0014 67.7976 59.013 65.7498 55.466C64.4666 53.2435 62.5977 52.6784 61.3866 52.4439C59.8891 53.9986 56.7236 55.0549 54.6032 55.2846C54.1259 55.3368 53.7048 55.2755 53.4675 54.8645C53.2127 54.423 53.3782 53.9012 53.774 53.6726C53.9719 53.5584 54.1681 53.5466 54.3403 53.5284C56.0666 53.4248 57.7208 52.7742 59.2887 51.8689C61.1003 50.823 61.7773 49.1128 60.8281 47.4687C59.7734 45.642 56.549 45.7174 52.317 48.1607C47.9023 50.7096 46.6046 54.544 48.591 57.9844C49.8302 60.1309 51.4034 60.887 52.604 61.2087C53.5067 60.241 56.7898 58.65 59.7564 58.4798C60.1488 58.4562 60.4697 58.5551 60.6631 58.89C60.9092 59.3162 60.7588 59.8293 60.3478 60.0666C59.9977 60.2687 59.5397 60.249 59.2194 60.2918C57.5786 60.5084 55.7786 61.2229 54.439 61.9963C52.6275 63.0422 51.9856 64.8133 52.8997 66.3965C54.0247 68.3451 57.6935 68.1957 62.1539 65.6205Z" fill="#00C9A5"/>
<path d="M74.8396 90.4161C76.9672 88.6309 77.0709 86.0197 75.2856 83.8922L64.7323 71.3153C62.9471 69.1877 60.3173 68.8703 58.2301 70.6216C56.1294 72.3843 55.9854 75.0293 57.7706 77.1569L68.3239 89.7338C70.1091 91.8613 72.739 92.1787 74.8396 90.4161Z" fill="#00C9A5"/>
<path d="M89.7848 114.331C92.5858 112.714 93.0998 110.123 91.8517 107.962C90.7179 105.998 88.6265 105.399 87.0281 106.322C86.4953 106.629 86.0919 107.126 85.9035 107.397C85.7214 107.645 85.5979 107.817 85.4305 107.914C85.0042 108.16 84.4824 107.995 84.2451 107.584C84.0781 107.294 84.0897 106.963 84.291 106.644C84.802 105.841 85.6316 105.098 86.4689 104.615C86.6059 104.536 86.7885 104.43 86.9343 104.367L85.4402 101.779C86.9321 100.917 87.2536 99.189 86.2692 97.4841C85.2673 95.7486 83.4271 95.2684 82.1179 96.0243C81.2198 96.5428 80.6162 97.1146 80.2264 97.705C80.0964 97.9018 79.9553 98.0442 79.7879 98.1408C79.3769 98.3782 78.8638 98.2278 78.6353 97.832C78.4771 97.558 78.4647 97.2201 78.6572 96.8857C79.1916 95.9479 80.0669 95.1787 81.239 94.502L81.2302 94.4868C79.7597 92.2912 77.4298 91.5254 75.0703 92.8877C72.6955 94.2588 72.1031 96.8538 73.4917 99.259L80.6285 111.62C82.7994 115.38 86.6336 116.15 89.7848 114.331Z" fill="#00C9A5"/>
<path d="M97.6704 136.235C99.9995 134.89 100.64 132.308 99.2337 129.872L97.6077 127.056C96.2884 127.513 94.2826 127.027 93.2945 126.441C93.0496 126.298 92.8985 126.142 92.8018 125.974C92.5557 125.548 92.682 125.028 93.0931 124.791C93.4127 124.607 93.7466 124.657 94.0482 124.828C94.9772 125.347 96.5034 125.846 97.7669 125.117C100.066 123.79 100.527 121.108 98.9799 118.429C97.4243 115.734 94.8649 114.817 92.5966 116.127C91.7593 116.61 91.263 117.262 91.1302 117.805C90.9202 118.637 90.9984 119.546 91.1422 120.498C91.1938 120.834 91.1172 121.263 90.7062 121.501C90.2952 121.738 89.7822 121.588 89.5536 121.192C89.457 121.024 89.3901 120.698 89.359 120.574C89.2581 119.942 89.1565 119.168 89.2769 118.287C88.8652 118.382 88.3646 118.57 87.7861 118.904C85.3047 120.337 84.71 122.892 86.125 125.343L91.3633 134.416C92.7696 136.852 95.326 137.588 97.6704 136.235Z" fill="#00C9A5"/>
<path d="M81.5191 59.0588C86.3752 56.2551 87.7153 51.1581 84.5776 45.7234C81.4399 40.2888 76.3557 38.9007 71.4995 41.7044C66.6434 44.5082 65.3034 49.6052 68.4411 55.0398C71.5788 60.4745 76.6629 61.8625 81.5191 59.0588ZM77.0314 53.0436L74.465 48.5985C74.1925 48.1266 74.2187 47.6446 74.7515 47.337C75.2843 47.0294 75.7148 47.2477 75.9873 47.7196L78.5537 52.1647C78.8261 52.6366 78.7999 53.1186 78.2671 53.4262C77.7343 53.7338 77.3038 53.5156 77.0314 53.0436Z" fill="#00C9A5"/>
<path d="M78.3978 68.1733C78.015 69.5573 77.01 70.8189 75.7573 71.6961C74.5045 72.5733 72.9897 73.076 71.5294 72.9826C71.675 73.5889 71.9573 74.2066 72.3707 74.797L78.4504 83.4797C80.0434 85.7548 82.6356 86.3002 84.8818 84.7273C87.1569 83.1343 87.4877 80.5422 85.8947 78.2671L79.815 69.5844C79.4017 68.994 78.9177 68.5174 78.3978 68.1733ZM68.3435 69.2908C69.7853 71.3499 72.3588 71.9299 74.749 70.2562C77.1393 68.5825 77.4601 65.9759 76.0183 63.9169C74.5966 61.8866 71.9973 61.2389 69.607 62.9126C67.2167 64.5863 66.9219 67.2605 68.3435 69.2908Z" fill="#00C9A5"/>
<path d="M99.2643 101.93C101.487 100.647 102.053 98.006 101.721 95.3562C101.641 94.6915 101.871 94.4572 102.161 94.2902C102.526 94.0793 103.041 94.1271 103.296 94.5686C103.348 94.6599 103.379 94.7841 103.437 94.9539C103.657 95.8621 103.593 97.6851 103.369 98.809C103.932 98.8697 104.958 98.6428 105.719 98.2033C108.094 96.8322 108.756 94.359 107.482 92.1516L103.861 85.8797C101.303 81.4498 96.6127 80.3216 91.924 83.0287C87.2657 85.7181 84.9938 90.115 86.7252 93.114C87.8239 95.0169 89.8512 94.9424 91.5715 93.9493C93.0481 93.0967 93.625 91.424 92.9311 89.8355C92.6469 89.1674 92.7674 88.8137 93.2241 88.55C93.6503 88.3039 94.1306 88.4326 94.4909 89.0567C95.6071 90.9901 94.8861 94.0653 92.4656 95.4628C91.6892 95.911 90.7424 96.275 89.8968 96.3573C89.8555 97.3757 90.0426 98.2622 90.693 99.3887C92.6178 102.723 96.2349 103.679 99.2643 101.93ZM97.9971 94.989L97.1006 93.4363C96.8282 92.9643 96.8544 92.4824 97.3872 92.1748C97.92 91.8671 98.3505 92.0854 98.623 92.5574L99.5194 94.1101C99.7919 94.582 99.7657 95.064 99.2329 95.3716C98.7001 95.6792 98.2696 95.4609 97.9971 94.989Z" fill="#00C9A5"/>
<path d="M108.831 125.957C114.671 124.392 116.78 120.442 116.72 115.399L116.64 107.831C116.618 106.527 116.387 104.987 116.055 103.748C115.259 100.777 113.408 99.7077 110.708 100.431C108.314 101.073 107.78 102.544 107.635 104.312L110.23 109.513C110.737 110.523 111.127 111.165 111.398 111.565C111.516 111.734 111.725 111.969 111.793 112.224C111.921 112.699 111.66 113.151 111.184 113.279C110.845 113.37 110.527 113.273 110.214 112.92C109.871 112.521 109.305 111.562 108.881 110.729L106.438 105.888C105.163 103.373 103.577 102.342 100.86 103.07C98.1434 103.798 97.0914 105.645 97.8785 108.582C98.0741 109.312 98.5839 110.468 99.184 111.417L102.482 116.593C102.933 116.308 103.449 116.061 104.162 115.87C106.217 115.319 107.8 116.133 108.742 116.863C109.018 117.08 109.167 117.295 109.23 117.533C109.349 117.974 109.071 118.431 108.612 118.554C108.29 118.64 108.019 118.513 107.768 118.325C106.762 117.557 105.908 117.222 104.6 117.572C101.833 118.314 100.735 120.464 101.358 122.791C102.077 125.473 105.248 126.917 108.831 125.957Z" fill="#00C9A5"/>
</svg>
