<svg width="244" height="170" viewBox="0 0 244 170" fill="none" xmlns="http://www.w3.org/2000/svg">
<rect width="170" height="170" rx="85" fill="#6966FE"/>
<rect x="31.2321" y="49.8301" width="55" height="112" transform="rotate(-30 31.2321 49.8301)" fill="#6966FE" stroke="#E845A6" stroke-width="4"/>
<path d="M58.9459 65.4124C63.4823 62.7933 64.5896 58.8049 62.5418 55.2579C61.2586 53.0353 59.3897 52.4702 58.1786 52.2358C56.6811 53.7905 53.5156 54.8468 51.3952 55.0764C50.9179 55.1287 50.4968 55.0674 50.2595 54.6563C50.0046 54.2149 50.1702 53.693 50.566 53.4645C50.7639 53.3503 50.9601 53.3385 51.1323 53.3203C52.8586 53.2166 54.5127 52.5661 56.0807 51.6608C57.8923 50.6149 58.5693 48.9047 57.6201 47.2606C56.5654 45.4338 53.341 45.5093 49.109 47.9526C44.6943 50.5014 43.3966 54.3359 45.383 57.7763C46.6222 59.9227 48.1954 60.6788 49.396 61.0005C50.2987 60.0328 53.5818 58.4418 56.5484 58.2716C56.9408 58.2481 57.2617 58.347 57.4551 58.6819C57.7012 59.1081 57.5508 59.6212 57.1398 59.8585C56.7897 60.0606 56.3317 60.0408 56.0114 60.0837C54.3706 60.3003 52.5706 61.0148 51.231 61.7882C49.4195 62.8341 48.7776 64.6052 49.6917 66.1884C50.8167 68.1369 54.4855 67.9876 58.9459 65.4124Z" fill="#E845A6"/>
<path d="M71.6316 90.208C73.7592 88.4227 73.8628 85.8116 72.0776 83.684L61.5243 71.1072C59.7391 68.9796 57.1092 68.6622 55.0221 70.4135C52.9214 72.1762 52.7774 74.8212 54.5626 76.9487L65.1159 89.5256C66.9011 91.6532 69.531 91.9706 71.6316 90.208Z" fill="#E845A6"/>
<path d="M86.5768 114.123C89.3778 112.506 89.8918 109.915 88.6437 107.754C87.5099 105.79 85.4185 105.191 83.8201 106.114C83.2873 106.421 82.8839 106.918 82.6955 107.189C82.5134 107.436 82.3899 107.609 82.2225 107.706C81.7962 107.952 81.2744 107.786 81.0371 107.375C80.8701 107.086 80.8817 106.755 81.083 106.436C81.594 105.633 82.4236 104.89 83.2609 104.407C83.3979 104.328 83.5805 104.222 83.7263 104.158L82.2322 101.57C83.7241 100.709 84.0456 98.9809 83.0612 97.2759C82.0593 95.5405 80.2191 95.0603 78.9099 95.8162C78.0118 96.3347 77.4082 96.9065 77.0184 97.4969C76.8884 97.6937 76.7473 97.836 76.5799 97.9327C76.1688 98.17 75.6558 98.0197 75.4273 97.6239C75.2691 97.3499 75.2567 97.012 75.4492 96.6775C75.9836 95.7398 76.8588 94.9706 78.031 94.2938L78.0222 94.2786C76.5516 92.083 74.2218 91.3172 71.8623 92.6795C69.4875 94.0506 68.8951 96.6457 70.2837 99.0509L77.4204 111.412C79.5913 115.172 83.4256 115.942 86.5768 114.123Z" fill="#E845A6"/>
<path d="M94.4624 136.027C96.7915 134.682 97.4319 132.1 96.0257 129.664L94.3997 126.848C93.0804 127.305 91.0746 126.819 90.0864 126.233C89.8416 126.09 89.6905 125.933 89.5938 125.766C89.3477 125.34 89.474 124.82 89.8851 124.583C90.2047 124.398 90.5386 124.449 90.8402 124.62C91.7691 125.139 93.2954 125.638 94.5589 124.909C96.8576 123.582 97.3188 120.9 95.7719 118.221C94.2163 115.526 91.6568 114.609 89.3886 115.918C88.5513 116.402 88.0549 117.054 87.9222 117.597C87.7122 118.429 87.7904 119.338 87.9342 120.29C87.9858 120.625 87.9092 121.055 87.4982 121.293C87.0872 121.53 86.5741 121.38 86.3456 120.984C86.249 120.816 86.1821 120.49 86.151 120.365C86.0501 119.734 85.9485 118.96 86.0689 118.079C85.6572 118.174 85.1566 118.362 84.5781 118.696C82.0967 120.128 81.502 122.684 82.917 125.135L88.1553 134.208C89.5616 136.644 92.118 137.38 94.4624 136.027Z" fill="#E845A6"/>
<path d="M72.0464 60.1742C77.6538 60.1742 81.3628 56.4301 81.3628 50.1547C81.3628 43.8793 77.6538 40.1351 72.0464 40.1351C66.439 40.1351 62.73 43.8793 62.73 50.1547C62.73 56.4301 66.439 60.1742 72.0464 60.1742ZM71.1675 52.7211V47.5883C71.1675 47.0433 71.4312 46.639 72.0464 46.639C72.6616 46.639 72.9253 47.0433 72.9253 47.5883V52.7211C72.9253 53.266 72.6616 53.6703 72.0464 53.6703C71.4312 53.6703 71.1675 53.266 71.1675 52.7211Z" fill="#E845A6"/>
<path d="M75.1898 67.9652C74.807 69.3492 73.802 70.6108 72.5493 71.488C71.2965 72.3651 69.7817 72.8679 68.3214 72.7745C68.467 73.3808 68.7493 73.9985 69.1627 74.5889L75.2424 83.2716C76.8354 85.5466 79.4276 86.0921 81.6738 84.5192C83.9489 82.9262 84.2797 80.334 82.6867 78.059L76.607 69.3763C76.1937 68.7859 75.7097 68.3093 75.1898 67.9652ZM65.1355 69.0827C66.5773 71.1417 69.1508 71.7217 71.541 70.048C73.9313 68.3744 74.252 65.7678 72.8103 63.7087C71.3886 61.6785 68.7892 61.0308 66.399 62.7045C64.0087 64.3782 63.7139 67.0524 65.1355 69.0827Z" fill="#E845A6"/>
<path d="M96.0563 101.722C98.2788 100.439 98.8449 97.7978 98.5126 95.148C98.4333 94.4834 98.6634 94.2491 98.9526 94.0821C99.318 93.8712 99.8327 93.919 100.088 94.3605C100.14 94.4518 100.171 94.576 100.229 94.7458C100.449 95.654 100.385 97.477 100.161 98.6009C100.724 98.6616 101.75 98.4346 102.511 97.9952C104.886 96.6241 105.548 94.1508 104.274 91.9435L100.653 85.6716C98.0952 81.2416 93.4047 80.1135 88.716 82.8205C84.0577 85.51 81.7858 89.9069 83.5172 92.9059C84.6159 94.8087 86.6432 94.7343 88.3634 93.7411C89.8401 92.8886 90.417 91.2159 89.7231 89.6274C89.4389 88.9593 89.5594 88.6055 90.0161 88.3419C90.4423 88.0958 90.9226 88.2244 91.2829 88.8486C92.3991 90.7819 91.6781 93.8572 89.2576 95.2547C88.4812 95.7029 87.5344 96.0669 86.6888 96.1491C86.6475 97.1675 86.8346 98.0541 87.485 99.1806C89.4098 102.514 93.0269 103.471 96.0563 101.722ZM94.7891 94.7809L93.8926 93.2281C93.6202 92.7562 93.6464 92.2742 94.1792 91.9666C94.712 91.659 95.1425 91.8773 95.4149 92.3492L96.3114 93.902C96.5839 94.3739 96.5577 94.8559 96.0249 95.1635C95.4921 95.4711 95.0616 95.2528 94.7891 94.7809Z" fill="#E845A6"/>
<path d="M105.623 125.748C111.463 124.183 113.572 120.234 113.512 115.19L113.432 107.623C113.41 106.319 113.179 104.779 112.847 103.54C112.051 100.568 110.2 99.4995 107.5 100.223C105.106 100.864 104.572 102.336 104.427 104.104L107.022 109.305C107.529 110.315 107.919 110.957 108.19 111.357C108.308 111.526 108.517 111.761 108.585 112.016C108.713 112.491 108.452 112.943 107.976 113.071C107.637 113.162 107.319 113.065 107.006 112.712C106.663 112.312 106.097 111.354 105.673 110.521L103.23 105.68C101.955 103.164 100.369 102.134 97.652 102.862C94.9354 103.59 93.8834 105.436 94.6705 108.374C94.8661 109.104 95.3759 110.259 95.976 111.209L99.2738 116.385C99.7253 116.1 100.241 115.853 100.954 115.662C103.009 115.111 104.592 115.925 105.534 116.655C105.81 116.872 105.959 117.087 106.022 117.325C106.141 117.766 105.863 118.223 105.404 118.346C105.082 118.432 104.811 118.305 104.56 118.117C103.554 117.349 102.7 117.014 101.392 117.364C98.6248 118.106 97.5268 120.256 98.1501 122.582C98.8689 125.265 102.04 126.708 105.623 125.748Z" fill="#E845A6"/>
<rect x="73.9995" width="170" height="170" rx="85" fill="#00E3BA"/>
<rect x="149.096" y="22.6597" width="55" height="112" transform="rotate(20 149.096 22.6597)" fill="#00E3BA" stroke="#FFADAD" stroke-width="4"/>
<path d="M154.973 53.9058C159.895 55.6974 163.663 53.9819 165.063 50.1332C165.941 47.7216 165.173 45.9267 164.574 44.8482C162.42 44.7004 159.576 42.9545 158.037 41.4778C157.691 41.1458 157.467 40.7838 157.629 40.3378C157.804 39.8588 158.31 39.6502 158.739 39.8065C158.954 39.8846 159.089 40.0273 159.214 40.1475C160.403 41.4034 161.964 42.2524 163.666 42.8716C165.631 43.587 167.377 43.0064 168.026 41.2224C168.747 39.2402 166.617 36.8187 162.025 35.1474C157.235 33.4039 153.463 34.8745 152.105 38.6076C151.257 40.9366 151.689 42.6278 152.214 43.7543C153.536 43.8238 156.865 45.316 158.902 47.4792C159.172 47.7646 159.303 48.074 159.171 48.4374C159.002 48.9 158.513 49.1146 158.067 48.9522C157.687 48.814 157.408 48.4504 157.169 48.2326C155.948 47.1149 154.244 46.1953 152.79 45.6662C150.825 44.9508 149.055 45.5976 148.43 47.3154C147.661 49.4297 150.133 52.1442 154.973 53.9058Z" fill="#FFADAD"/>
<path d="M144.134 79.562C146.869 80.0443 148.936 78.4453 149.418 75.7102L152.269 59.5416C152.751 56.8065 151.304 54.5879 148.621 54.1148C145.92 53.6386 143.801 55.2284 143.319 57.9636L140.468 74.1321C139.986 76.8672 141.433 79.0859 144.134 79.562Z" fill="#FFADAD"/>
<path d="M135.42 106.383C138.459 107.489 140.774 106.218 141.628 103.872C142.403 101.741 141.518 99.7543 139.783 99.123C139.205 98.9126 138.566 98.9229 138.237 98.9529C137.93 98.9723 137.718 98.9887 137.537 98.9226C137.074 98.7543 136.866 98.2481 137.028 97.8021C137.142 97.4883 137.404 97.2841 137.778 97.2332C138.721 97.1088 139.823 97.2668 140.732 97.5975C140.88 97.6516 141.078 97.7237 141.221 97.7943L142.243 94.9863C143.862 95.5755 145.392 94.7109 146.066 92.8609C146.751 90.9778 145.936 89.2595 144.516 88.7425C143.541 88.3877 142.715 88.2929 142.012 88.3738C141.778 88.4007 141.578 88.3842 141.397 88.318C140.951 88.1557 140.736 87.6661 140.892 87.2366C141 86.9393 141.251 86.7126 141.631 86.6451C142.693 86.4517 143.845 86.6277 145.117 87.0907L145.123 87.0741C145.86 84.5363 144.949 82.2593 142.388 81.3274C139.811 80.3896 137.443 81.6038 136.493 84.2137L131.611 97.6263C130.126 101.706 132.001 105.138 135.42 106.383Z" fill="#FFADAD"/>
<path d="M123.709 126.503C126.237 127.423 128.626 126.254 129.588 123.611L130.7 120.555C129.502 119.838 128.585 117.989 128.399 116.856C128.351 116.576 128.374 116.36 128.44 116.178C128.608 115.716 129.087 115.479 129.533 115.641C129.88 115.767 130.056 116.056 130.119 116.397C130.318 117.442 130.917 118.932 132.288 119.431C134.782 120.339 137.133 118.968 138.191 116.061C139.255 113.137 138.313 110.587 135.852 109.691C134.943 109.36 134.125 109.399 133.623 109.647C132.851 110.021 132.205 110.665 131.568 111.387C131.344 111.642 130.966 111.86 130.52 111.697C130.074 111.535 129.859 111.046 130.015 110.616C130.082 110.434 130.289 110.173 130.364 110.069C130.783 109.586 131.311 109.011 132.063 108.537C131.725 108.283 131.26 108.02 130.632 107.791C127.94 106.811 125.599 107.999 124.632 110.658L121.048 120.503C120.086 123.146 121.165 125.577 123.709 126.503Z" fill="#FFADAD"/>
<path d="M178.787 65.4216C184.309 64.4479 187.312 60.1166 186.222 53.9365C185.132 47.7565 180.83 44.7133 175.307 45.687C169.785 46.6607 166.783 50.992 167.872 57.1721C168.962 63.3521 173.265 66.3953 178.787 65.4216ZM176.627 58.2343L175.736 53.1795C175.641 52.6428 175.831 52.1989 176.437 52.0921C177.043 51.9852 177.372 52.3376 177.467 52.8742L178.358 57.9291C178.453 58.4657 178.264 58.9097 177.658 59.0165C177.052 59.1233 176.722 58.771 176.627 58.2343Z" fill="#FFADAD"/>
<path d="M163.459 67.9905C162.153 68.5868 160.541 68.6279 159.063 68.2321C157.586 67.8363 156.227 66.999 155.36 65.8204C154.989 66.3215 154.698 66.9349 154.511 67.6311L151.768 77.8695C151.049 80.5522 152.297 82.8885 154.946 83.5982C157.629 84.3171 159.827 82.9043 160.546 80.2216L163.289 69.9832C163.476 69.287 163.53 68.61 163.459 67.9905ZM156.14 61.0067C155.49 63.4348 156.7 65.779 159.518 66.5342C162.337 67.2894 164.54 65.8597 165.19 63.4317C165.832 61.0376 164.657 58.63 161.839 57.8748C159.02 57.1196 156.782 58.6127 156.14 61.0067Z" fill="#FFADAD"/>
<path d="M151.013 105.673C153.425 106.551 155.812 105.287 157.628 103.329C158.086 102.841 158.413 102.867 158.727 102.981C159.124 103.126 159.418 103.551 159.244 104.03C159.208 104.129 159.132 104.232 159.039 104.386C158.485 105.138 157.047 106.261 156.042 106.812C156.358 107.282 157.191 107.922 158.017 108.222C160.594 109.16 162.914 108.078 163.786 105.683L166.263 98.8776C168.013 94.0709 165.862 89.7526 160.774 87.9009C155.72 86.0612 150.891 87.1471 149.707 90.4011C148.955 92.4659 150.315 93.9711 152.182 94.6504C153.784 95.2336 155.436 94.6003 156.207 93.0477C156.536 92.4005 156.885 92.2655 157.38 92.4458C157.843 92.6142 158.053 93.0648 157.806 93.742C157.043 95.8398 154.224 97.2642 151.597 96.3082C150.755 96.0016 149.867 95.5103 149.261 94.9154C148.454 95.5384 147.895 96.2516 147.45 97.4739C146.134 101.091 147.726 104.477 151.013 105.673ZM155.516 100.241L156.129 98.5563C156.315 98.0442 156.701 97.7545 157.28 97.9649C157.858 98.1753 157.967 98.6454 157.781 99.1575L157.168 100.842C156.981 101.354 156.595 101.644 156.017 101.434C155.439 101.223 155.329 100.753 155.516 100.241Z" fill="#FFADAD"/>
<path d="M138.757 128.446C143.71 131.914 148.091 130.99 151.916 127.703L157.661 122.777C158.646 121.922 159.677 120.756 160.413 119.705C162.178 117.185 161.807 115.079 159.517 113.476C157.487 112.055 156.016 112.592 154.569 113.617L152.253 118.947C151.805 119.986 151.564 120.697 151.432 121.162C151.378 121.361 151.332 121.672 151.181 121.888C150.899 122.291 150.384 122.382 149.981 122.099C149.693 121.898 149.564 121.592 149.633 121.126C149.718 120.606 150.088 119.556 150.454 118.697L152.592 113.713C153.7 111.119 153.469 109.242 151.166 107.628C148.862 106.015 146.771 106.397 145.026 108.888C144.593 109.507 144.035 110.64 143.694 111.71L141.849 117.564C142.357 117.726 142.878 117.963 143.483 118.386C145.225 119.606 145.619 121.341 145.665 122.532C145.677 122.884 145.608 123.136 145.467 123.337C145.204 123.712 144.676 123.792 144.287 123.52C144.014 123.328 143.937 123.039 143.92 122.726C143.861 121.462 143.569 120.592 142.46 119.816C140.113 118.172 137.76 118.714 136.379 120.686C134.786 122.961 135.718 126.318 138.757 128.446Z" fill="#FFADAD"/>
</svg>
